<?xml version="1.0" encoding="UTF-8" standalone="no"?>
<!DOCTYPE svg PUBLIC "-//W3C//DTD SVG 1.1//EN" "http://www.w3.org/Graphics/SVG/1.1/DTD/svg11.dtd">
<svg xmlns="http://www.w3.org/2000/svg" version="1.1" viewBox="0 0 601 260">
<path fill="#ffa500" d="
  M 357.19 16.19
  Q 359.93 12.96 363.53 11.39
  Q 366.10 10.27 371.15 10.17
  Q 395.67 9.71 420.19 10.17
  Q 425.19 10.26 428.08 11.60
  Q 433.45 14.09 436.22 19.25
  Q 438.00 22.57 438.32 28.59
  Q 438.62 34.26 438.60 39.95
  Q 438.56 48.58 438.18 50.53
  Q 437.16 55.92 433.18 60.20
  C 432.89 60.51 432.89 60.99 433.17 61.30
  Q 437.92 66.58 444.45 69.82
  Q 445.99 70.58 444.28 70.81
  Q 434.83 72.08 425.88 66.46
  Q 424.35 65.50 422.54 65.50
  Q 400.04 65.50 376.80 65.50
  Q 367.97 65.50 364.37 64.15
  Q 357.75 61.67 354.74 55.08
  Q 353.26 51.85 353.11 46.18
  Q 352.85 36.84 352.93 27.50
  Q 352.98 21.15 357.19 16.19
  Z"
/>
<ellipse fill="#ffffff" cx="0.00" cy="0.00" transform="translate(494.26,68.45) rotate(90.5)" rx="33.28" ry="31.68"/>
<path fill="#ffffff" d="
  M 275.34 188.30
  Q 273.68 196.30 270.94 200.19
  Q 267.44 205.15 261.00 205.25
  Q 255.65 205.33 251.36 203.35
  Q 246.18 200.96 241.33 197.74
  C 240.90 197.45 240.33 197.48 239.93 197.81
  Q 235.14 201.64 229.00 202.75
  Q 223.77 203.70 216.15 203.29
  Q 208.02 202.85 203.77 200.46
  Q 196.27 196.25 194.56 186.59
  C 194.51 186.31 194.38 186.09 194.23 186.04
  Q 193.96 185.96 193.88 186.52
  Q 192.60 194.93 186.69 199.94
  Q 184.15 202.08 180.72 202.72
  Q 179.24 203.00 174.29 203.24
  Q 158.83 203.98 145.05 196.68
  C 144.77 196.54 144.44 196.54 144.17 196.70
  Q 137.67 200.46 130.47 202.12
  Q 125.61 203.25 115.93 203.25
  Q 106.21 203.25 96.49 203.25
  C 96.22 203.25 95.99 203.44 95.94 203.70
  Q 95.45 206.12 94.87 208.53
  Q 89.74 229.81 68.06 233.81
  Q 61.46 235.03 55.50 234.99
  Q 47.90 234.93 40.96 232.45
  Q 33.68 229.85 28.64 224.86
  Q 20.44 216.72 19.75 204.75
  Q 18.76 187.72 25.48 171.22
  C 25.64 170.83 26.06 170.63 26.45 170.74
  L 38.40 174.14
  C 38.88 174.28 39.11 174.82 38.89 175.27
  Q 34.66 184.01 33.75 193.24
  Q 33.08 199.97 35.01 204.03
  Q 36.77 207.73 40.29 210.01
  Q 42.97 211.74 47.55 212.51
  Q 57.37 214.14 67.18 212.45
  Q 71.79 211.66 74.25 209.78
  Q 77.48 207.31 78.75 203.25
  Q 80.60 197.33 80.59 190.00
  Q 80.50 148.62 80.50 106.04
  C 80.50 105.61 80.84 105.26 81.27 105.26
  L 96.40 105.31
  C 96.73 105.31 97.00 105.58 97.00 105.92
  L 96.94 182.59
  C 96.94 182.95 97.23 183.25 97.59 183.25
  L 127.57 183.25
  Q 128.81 183.25 127.98 182.33
  Q 121.61 175.27 115.85 167.34
  C 115.65 167.07 115.55 166.75 115.55 166.44
  L 115.67 147.19
  C 115.67 146.88 115.85 146.60 116.14 146.47
  Q 134.54 137.98 155.75 141.25
  Q 165.21 142.71 169.95 149.17
  Q 174.28 155.08 174.09 163.55
  Q 173.83 174.79 163.67 181.95
  Q 161.82 183.25 164.09 183.25
  Q 171.75 183.25 179.50 183.25
  Q 184.12 183.25 187.11 182.20
  Q 192.73 180.23 192.64 174.00
  Q 192.50 164.88 192.50 155.75
  C 192.50 155.47 192.72 155.25 193.00 155.25
  L 207.08 155.25
  C 207.45 155.25 207.75 155.55 207.75 155.92
  Q 207.75 166.00 207.84 175.50
  Q 207.89 181.40 213.54 182.57
  Q 223.54 184.65 231.69 181.44
  Q 233.75 180.62 235.37 177.65
  Q 238.23 172.40 240.70 166.92
  C 240.96 166.34 241.64 166.08 242.22 166.35
  L 254.47 172.11
  C 254.83 172.27 254.99 172.71 254.81 173.07
  L 250.64 181.55
  C 250.51 181.83 250.62 182.16 250.90 182.29
  Q 258.05 185.78 266.00 185.25
  Q 269.80 185.00 271.75 182.04
  Q 273.02 180.09 273.35 176.19
  Q 273.68 172.07 273.44 167.29
  C 273.41 166.73 273.86 166.25 274.43 166.25
  L 287.77 166.25
  C 288.37 166.25 288.85 166.76 288.81 167.36
  Q 288.35 174.44 289.50 180.50
  Q 289.91 182.66 291.98 183.89
  Q 293.58 184.83 295.81 184.90
  Q 302.50 185.10 302.33 177.25
  Q 302.13 168.13 299.93 158.96
  C 299.80 158.42 300.17 157.88 300.73 157.79
  L 314.49 155.50
  C 314.71 155.47 314.92 155.60 314.96 155.81
  Q 316.58 163.19 316.93 170.59
  Q 317.29 178.40 317.07 182.41
  Q 316.73 188.64 314.56 194.06
  Q 310.88 203.29 301.69 204.94
  Q 297.22 205.74 290.31 204.94
  Q 284.50 204.27 280.06 199.19
  Q 276.77 195.43 275.52 188.30
  Q 275.44 187.82 275.34 188.30
  Z
  M 156.27 161.98
  Q 154.37 161.14 152.26 160.93
  Q 140.82 159.77 129.54 162.07
  C 129.15 162.15 128.99 162.61 129.25 162.91
  L 145.42 181.87
  C 145.61 182.08 145.92 182.12 146.15 181.95
  Q 156.52 174.08 158.50 171.50
  Q 161.30 167.85 159.32 164.54
  Q 158.33 162.89 156.27 161.98
  Z"
/>
<rect fill="#ffffff" x="328.53" y="105.26" width="16.48" height="97.98" rx="0.49"/>
<path fill="#ffffff" d="
  M 561.79 206.77
  Q 561.22 207.50 562.15 207.46
  Q 573.85 206.93 585.02 207.50
  C 585.69 207.53 586.23 208.07 586.26 208.75
  Q 586.65 216.73 586.29 224.94
  Q 586.28 225.07 586.35 226.53
  Q 586.48 229.00 583.50 229.00
  Q 492.87 229.00 401.62 229.00
  C 400.61 229.00 399.78 228.22 399.72 227.21
  Q 399.13 218.13 399.72 208.93
  C 399.78 208.11 400.43 207.47 401.22 207.47
  L 424.11 207.42
  C 424.41 207.42 424.60 207.11 424.45 206.86
  Q 417.82 195.37 421.94 183.44
  Q 426.90 169.07 431.93 146.70
  Q 434.15 136.78 436.31 132.71
  Q 440.00 125.76 446.19 121.44
  Q 460.15 111.68 477.75 109.25
  Q 492.34 107.24 505.84 108.95
  Q 522.46 111.05 536.65 119.86
  Q 549.59 127.90 554.00 142.50
  Q 557.06 152.62 564.31 180.69
  Q 565.96 187.07 566.29 190.00
  Q 567.36 199.54 561.79 206.77
  Z
  M 531.9426 152.1731
  C 531.94 151.76 531.61 151.43 531.2013 151.4344
  L 455.9414 151.5657
  C 455.53 151.57 455.20 151.90 455.2027 152.3070
  L 455.2974 206.5469
  C 455.30 206.96 455.63 207.29 456.0387 207.2856
  L 531.2986 207.1543
  C 531.71 207.15 532.04 206.82 532.0373 206.4130
  L 531.9426 152.1731
  Z
  M 581.66 212.39
  C 581.66 212.24 581.54 212.12 581.39 212.12
  L 404.53 212.12
  C 404.38 212.12 404.26 212.24 404.26 212.39
  L 404.26 224.23
  C 404.26 224.38 404.38 224.50 404.53 224.50
  L 581.39 224.50
  C 581.54 224.50 581.66 224.38 581.66 224.23
  L 581.66 212.39
  Z"
/>
<rect fill="#ffffff" x="-9.34" y="-8.87" transform="translate(144.10,121.09) rotate(0.3)" width="18.68" height="17.74" rx="7.20"/>
<rect fill="#ffffff" x="-9.34" y="-8.87" transform="translate(281.10,127.08) rotate(0.2)" width="18.68" height="17.74" rx="7.19"/>
<rect fill="#ffffff" x="-9.24" y="-8.88" transform="translate(189.75,136.09) rotate(-0.3)" width="18.48" height="17.76" rx="7.11"/>
<rect fill="#ffffff" x="-9.34" y="-8.87" transform="translate(210.59,136.08) rotate(0.2)" width="18.68" height="17.74" rx="7.20"/>
<rect fill="#ffffff" x="-9.32" y="-8.96" transform="translate(270.81,146.32) rotate(-0.2)" width="18.64" height="17.92" rx="7.38"/>
<rect fill="#ffffff" x="282.29" y="137.39" width="18.60" height="17.86" rx="7.19"/>
<rect fill="#ffffff" x="-33.02" y="-3.48" transform="translate(493.43,200.23) rotate(-0.1)" width="66.04" height="6.96" rx="0.40"/>
<rect fill="#ffa500" x="110.00" y="212.00" width="257.30" height="17.24" rx="0.49"/>
</svg>
