<?xml version="1.0" encoding="UTF-8" standalone="no"?>
<!DOCTYPE svg PUBLIC "-//W3C//DTD SVG 1.1//EN" "http://www.w3.org/Graphics/SVG/1.1/DTD/svg11.dtd">
<svg xmlns="http://www.w3.org/2000/svg" version="1.1" viewBox="0 0 592 284">
<path fill="#ffa500" d="
  M 346.19 49.44
  Q 346.92 38.61 356.06 34.62
  Q 359.17 33.26 364.66 33.18
  Q 383.29 32.89 401.92 32.96
  Q 415.37 33.00 417.54 33.47
  Q 426.78 35.45 430.14 44.65
  Q 431.50 48.38 431.50 55.53
  Q 431.50 60.67 431.50 65.81
  Q 431.50 65.91 431.59 68.69
  Q 431.86 77.12 426.06 83.31
  C 425.83 83.55 425.83 83.93 426.05 84.17
  Q 430.91 89.62 437.39 92.96
  Q 438.64 93.60 436.92 93.75
  Q 426.33 94.69 417.60 88.85
  C 417.33 88.66 417.01 88.56 416.68 88.56
  Q 393.21 88.47 369.74 88.49
  Q 361.02 88.50 357.42 87.16
  Q 350.85 84.71 347.82 78.24
  Q 346.26 74.92 346.06 68.99
  Q 345.66 57.25 346.19 49.44
  Z"
/>
<ellipse fill="#3586ff" cx="0.00" cy="0.00" transform="translate(487.26,91.46) rotate(90.7)" rx="33.26" ry="31.69"/>
<path fill="#3586ff" d="
  M 21.94 247.81
  Q 17.36 243.37 15.09 237.23
  Q 13.28 232.32 12.95 225.09
  Q 12.23 209.21 18.80 194.45
  C 18.92 194.17 19.21 194.02 19.48 194.09
  L 31.22 197.39
  C 31.48 197.46 31.61 197.75 31.50 198.02
  Q 27.19 208.43 26.25 216.75
  Q 25.05 227.39 32.14 232.42
  Q 36.81 235.72 46.51 236.28
  Q 54.68 236.76 61.94 235.44
  Q 65.97 234.70 68.75 231.73
  Q 70.93 229.38 72.11 225.12
  Q 73.75 219.23 73.75 212.25
  Q 73.75 170.87 73.75 128.94
  C 73.75 128.56 74.06 128.25 74.44 128.25
  L 88.87 128.25
  C 89.36 128.25 89.75 128.64 89.75 129.13
  L 89.75 205.75
  C 89.75 206.03 89.97 206.25 90.25 206.25
  L 120.77 206.25
  Q 121.88 206.25 121.17 205.39
  L 109.46 191.13
  C 109.00 190.57 108.75 189.87 108.75 189.13
  L 108.75 170.35
  C 108.75 169.98 108.97 169.64 109.31 169.49
  Q 125.34 162.40 142.75 163.50
  Q 148.51 163.86 154.62 166.23
  Q 165.04 170.27 166.59 181.49
  Q 168.68 196.68 156.10 205.20
  Q 154.56 206.25 156.42 206.25
  Q 167.12 206.25 177.00 206.13
  Q 181.73 206.08 184.01 202.94
  Q 185.48 200.93 185.61 196.21
  Q 185.86 187.52 185.81 178.82
  C 185.81 178.54 186.03 178.31 186.31 178.31
  L 199.65 178.25
  C 200.12 178.24 200.50 178.63 200.50 179.10
  Q 200.50 188.75 200.63 197.75
  Q 200.75 206.60 209.75 206.36
  Q 214.00 206.25 218.25 206.18
  Q 223.10 206.11 226.38 203.34
  Q 228.38 201.66 230.63 196.94
  Q 232.28 193.47 233.89 189.89
  C 234.08 189.47 234.56 189.29 234.96 189.48
  L 247.03 195.23
  C 247.44 195.43 247.61 195.92 247.41 196.33
  L 243.49 204.24
  C 243.27 204.69 243.45 205.23 243.88 205.43
  Q 250.02 208.33 256.11 208.44
  Q 260.61 208.52 263.10 206.86
  Q 266.44 204.64 266.66 199.76
  Q 266.88 194.88 266.75 189.83
  C 266.74 189.51 266.99 189.25 267.31 189.25
  L 280.52 189.25
  C 281.08 189.25 281.52 189.72 281.48 190.28
  Q 281.19 194.62 281.59 199.08
  Q 282.00 203.61 283.45 205.61
  Q 285.84 208.91 290.75 208.00
  Q 294.54 207.30 295.50 203.00
  Q 296.16 200.04 295.52 195.50
  Q 294.55 188.70 293.30 181.89
  C 293.23 181.48 293.49 181.10 293.89 181.04
  L 307.39 178.95
  C 307.67 178.91 307.94 179.11 307.98 179.40
  Q 308.90 185.11 309.61 190.74
  Q 311.12 202.66 308.20 214.28
  Q 305.43 225.27 294.75 227.75
  Q 289.20 229.04 282.83 227.61
  Q 273.33 225.49 270.12 216.34
  Q 269.23 213.80 268.60 211.19
  Q 268.48 210.67 268.18 210.43
  Q 267.44 209.85 267.39 211.50
  Q 267.22 216.98 264.58 221.80
  Q 261.47 227.47 255.25 228.25
  Q 249.90 228.92 244.62 226.44
  Q 239.28 223.94 234.25 220.43
  C 233.96 220.23 233.58 220.23 233.29 220.43
  Q 226.72 225.14 219.20 226.06
  Q 213.96 226.71 208.29 226.32
  Q 204.57 226.06 201.01 224.96
  Q 197.14 223.77 194.50 221.66
  Q 188.88 217.19 187.71 209.51
  Q 187.59 208.74 187.22 208.80
  C 187.00 208.84 186.79 209.15 186.69 209.56
  Q 185.45 214.50 184.19 216.94
  Q 179.60 225.76 169.50 226.31
  Q 152.74 227.22 138.00 219.54
  C 137.73 219.40 137.40 219.41 137.13 219.57
  Q 126.53 225.68 116.75 226.00
  Q 103.63 226.43 89.71 226.24
  C 89.24 226.23 88.82 226.56 88.71 227.02
  Q 87.26 233.18 85.33 237.93
  Q 80.86 248.87 70.19 253.94
  Q 63.47 257.12 54.99 257.60
  Q 46.21 258.09 39.55 256.90
  Q 29.41 255.08 21.94 247.81
  Z
  M 139.27 204.82
  Q 145.61 200.14 150.17 196.06
  Q 152.38 194.08 153.00 192.30
  Q 153.98 189.50 152.42 187.26
  Q 151.07 185.33 147.80 184.37
  Q 145.10 183.59 142.25 183.45
  Q 132.02 182.92 121.98 185.00
  C 121.77 185.05 121.69 185.29 121.82 185.45
  L 138.01 204.69
  C 138.32 205.06 138.87 205.12 139.27 204.82
  Z"
/>
<rect fill="#3586ff" x="321.75" y="128.25" width="16.00" height="98.00" rx="0.42"/>
<path fill="#3586ff" d="
  M 555.07 230.42
  Q 566.66 229.95 577.98 230.49
  C 578.65 230.52 579.19 231.05 579.23 231.72
  Q 579.85 241.25 579.27 250.12
  Q 579.15 252.00 577.26 252.00
  L 394.61 252.00
  C 393.58 252.00 392.75 251.21 392.74 250.22
  L 392.52 232.80
  Q 392.49 230.49 394.80 230.47
  L 417.13 230.27
  Q 417.75 230.27 417.44 229.74
  Q 413.50 223.08 413.33 216.16
  Q 413.23 212.22 416.11 202.73
  Q 421.32 185.56 425.34 168.07
  Q 427.27 159.67 429.37 155.85
  Q 434.41 146.66 444.19 141.19
  Q 453.95 135.73 464.00 133.51
  Q 480.39 129.91 497.09 131.71
  Q 516.10 133.76 531.19 143.81
  Q 543.63 152.11 547.68 167.20
  Q 551.74 182.32 555.72 197.46
  Q 559.31 211.10 559.45 213.50
  Q 559.98 222.20 554.84 230.02
  Q 554.57 230.44 555.07 230.42
  Z
  M 525.00 175.24
  C 525.00 174.83 524.67 174.50 524.26 174.50
  L 448.98 174.50
  C 448.57 174.50 448.24 174.83 448.24 175.24
  L 448.24 229.50
  C 448.24 229.91 448.57 230.24 448.98 230.24
  L 524.26 230.24
  C 524.67 230.24 525.00 229.91 525.00 229.50
  L 525.00 175.24
  Z
  M 574.74 235.77
  C 574.74 235.41 574.45 235.12 574.09 235.12
  L 397.89 235.12
  C 397.53 235.12 397.24 235.41 397.24 235.77
  L 397.24 246.85
  C 397.24 247.21 397.53 247.50 397.89 247.50
  L 574.09 247.50
  C 574.45 247.50 574.74 247.21 574.74 246.85
  L 574.74 235.77
  Z"
/>
<rect fill="#3586ff" x="-9.09" y="-8.85" transform="translate(137.10,144.08) rotate(0.3)" width="18.18" height="17.70" rx="7.29"/>
<rect fill="#3586ff" x="-9.10" y="-8.87" transform="translate(274.11,150.07) rotate(-0.7)" width="18.20" height="17.74" rx="7.29"/>
<rect fill="#3586ff" x="-9.08" y="-8.85" transform="translate(182.68,159.07) rotate(0.7)" width="18.16" height="17.70" rx="7.26"/>
<rect fill="#3586ff" x="-9.07" y="-8.83" transform="translate(203.59,159.08) rotate(0.2)" width="18.14" height="17.66" rx="7.26"/>
<rect fill="#3586ff" x="-9.08" y="-8.85" transform="translate(263.67,169.40) rotate(0.3)" width="18.16" height="17.70" rx="7.28"/>
<rect fill="#3586ff" x="275.34" y="160.56" width="18.36" height="17.68" rx="7.44"/>
<rect fill="#3586ff" x="453.46" y="219.75" width="66.02" height="6.76" rx="0.43"/>
<rect fill="#ffa500" x="103.01" y="235.01" width="257.26" height="17.24" rx="0.26"/>
</svg>
