<?xml version="1.0" encoding="UTF-8" standalone="no"?>
<!DOCTYPE svg PUBLIC "-//W3C//DTD SVG 1.1//EN" "http://www.w3.org/Graphics/SVG/1.1/DTD/svg11.dtd">
<svg xmlns="http://www.w3.org/2000/svg" version="1.1" viewBox="0 0 512 512">
<path fill="#000000" d="
  M 251.81 0.00
  L 260.31 0.00
  Q 345.22 2.19 411.48 52.74
  Q 419.40 58.78 426.86 65.50
  Q 488.82 121.27 506.50 203.00
  Q 511.35 225.39 512.00 252.31
  L 512.00 260.56
  Q 510.51 323.68 480.86 378.48
  Q 476.12 387.23 470.60 395.64
  Q 450.60 426.11 424.06 449.06
  Q 353.99 509.68 259.69 512.00
  L 252.19 512.00
  Q 208.07 511.05 169.81 497.19
  Q 93.56 469.56 46.45 402.95
  Q 40.59 394.68 35.58 386.17
  Q 1.56 328.43 0.00 260.44
  L 0.00 251.69
  Q 1.10 200.78 20.95 154.43
  Q 24.83 145.39 29.64 136.41
  Q 67.22 66.28 136.81 29.31
  Q 189.50 1.33 251.81 0.00
  Z
  M 258.56 289.80
  Q 281.55 289.19 300.44 278.19
  Q 330.83 260.47 341.54 227.58
  Q 344.66 218.01 345.51 208.03
  Q 347.97 179.13 333.43 154.42
  Q 328.37 145.82 321.43 138.47
  Q 299.02 114.69 266.23 110.74
  Q 256.10 109.52 246.28 110.59
  Q 221.71 113.29 202.06 128.06
  Q 179.20 145.25 170.52 172.29
  Q 167.41 181.97 166.50 191.83
  Q 164.40 214.81 173.93 236.39
  Q 183.44 257.91 202.26 271.99
  Q 224.27 288.45 251.84 289.73
  Q 252.17 289.75 252.64 289.69
  Q 253.28 289.60 253.47 289.74
  Q 254.08 290.17 252.95 290.19
  Q 207.47 290.97 169.50 312.25
  Q 113.23 343.79 88.10 405.30
  A 2.03 2.02 -55.1 0 0 88.47 407.42
  Q 131.74 455.23 194.82 473.26
  Q 225.60 482.06 256.00 482.00
  Q 313.41 481.88 364.33 453.98
  Q 397.29 435.91 423.50 407.57
  A 2.25 2.24 55.5 0 0 423.93 405.21
  Q 398.22 340.77 336.94 309.41
  Q 327.81 304.73 318.66 301.31
  Q 290.46 290.76 261.25 290.25
  Q 259.43 290.22 258.54 289.98
  Q 257.91 289.82 258.56 289.80
  Z"
/>
</svg>
